:SAMPLES-PER-SECOND 30
:FULLY-SPECIFIED
:DEGREES
410
root  -5.64931 39.3385 -0.908417 -1.29685 -10.3411 -4.09304
RightUpLeg  -4.81577 -0.566409 5.76809
RightLeg  13.3405 -11.3728 -3.77591
RightFoot  -6.3707 -0.0728978 1.46186
RightToes  1.74624e-010 -3.18055e-015 -2.98177e-016
Spine  5.33977 -2.00051 6.96294
Spine1  -4.01831 -1.58725 1.72626
HEad  -3.0886 8.55598 0.0744991
LeftShoulder1  -3.88251e-019 9.70628e-020 -3.87848e-018
LeftArm  -25.109 24.8681 9.42475
LeftForeArm  -12.1428 -41.4923 9.33919
LeftHand  -4.20238 -12.6365 27.4154
RightShoulder  0.818998 2.68814 5.30667
RightArm  -34.4111 -16.9127 -3.27589
RightForeArm  -39.6859 41.1204 -21.4649
RightHand  -1.98349 0.953367 -34.7391
LeftUpLeg  -3.7815 -2.08407 9.13765
LeftLeg  17.9953 18.204 12.1014
LeftFoot  -5.11455 0.466188 -6.92173
LeftToes  7.37594e-011 2.64622e-011 -6.25182e-011
411
root  -5.28333 39.402 -0.87921 -1.21075 -9.66383 -4.09407
RightUpLeg  -4.46924 -0.718347 5.16269
RightLeg  12.335 -11.8774 -3.43954
RightFoot  -5.56231 -0.105507 1.75036
RightToes  1.74624e-010 -3.18055e-015 -2.98177e-016
Spine  5.02134 -2.09098 5.59569
Spine1  -3.65136 -1.96198 2.98095
HEad  -3.5928 9.40186 -0.524348
LeftShoulder1  -3.88251e-019 9.70628e-020 -3.87848e-018
LeftArm  -26.8853 27.1778 8.2351
LeftForeArm  -17.181 -31.8181 6.84742
LeftHand  -3.15706 -9.864 24.4835
RightShoulder  0.775709 2.4002 5.32751
RightArm  -33.9119 -17.6365 -2.02816
RightForeArm  -43.2066 31.8935 -15.0179
RightHand  -0.782108 -2.66773 -31.1385
LeftUpLeg  -3.1881 -1.19693 8.90238
LeftLeg  16.3822 16.2321 10.5788
LeftFoot  -5.62108 0.594542 -9.304
LeftToes  7.37594e-011 2.64622e-011 -6.25182e-011
412
root  -4.8745 39.4714 -0.859919 -1.25865 -8.81156 -3.7575
RightUpLeg  -4.14723 -1.10134 4.13448
RightLeg  11.4983 -12.2184 -3.23003
RightFoot  -4.76115 -0.155369 2.21572
RightToes  1.74624e-010 -3.18055e-015 -2.98177e-016
Spine  4.53745 -2.18874 4.25098
Spine1  -2.94165 -2.27539 3.76237
HEad  -4.20719 10.2119 -0.736174
LeftShoulder1  -3.88251e-019 9.70628e-020 -3.87848e-018
LeftArm  -20.3523 29.1046 5.5388
LeftForeArm  -35.9563 -20.258 7.80991
LeftHand  -1.66462 -4.85383 19.5382
RightShoulder  0.86191 2.49503 6.04489
RightArm  -28.0405 -18.8234 -1.2886
RightForeArm  -51.5779 21.6791 -10.8613
RightHand  0.487464 -7.48698 -27.1882
LeftUpLeg  -2.9987 2.03675 8.47637
LeftLeg  15.1787 12.4428 8.8712
LeftFoot  -5.72737 0.572975 -9.12987
LeftToes  7.37594e-011 2.64622e-011 -6.25182e-011
413
root  -4.40264 39.5417 -0.8475 -1.41599 -7.98348 -3.11453
RightUpLeg  -3.87923 -1.72238 2.67503
RightLeg  10.8582 -12.2739 -3.1279
RightFoot  -3.91016 -0.231809 2.91307
RightToes  1.74624e-010 -3.18055e-015 -2.98177e-016
Spine  3.83332 -2.25552 3.80307
Spine1  -1.79629 -2.30044 2.92459
HEad  -4.78074 10.775 -0.404621
LeftShoulder1  -3.88251e-019 9.70628e-020 -3.87848e-018
LeftArm  -5.82232 30.7936 1.25361
LeftForeArm  -63.8882 -7.82372 8.03429
LeftHand  -0.404637 1.86228 15.5325
RightShoulder  1.10371 3.04168 7.50829
RightArm  -10.0191 -21.9571 0.0281031
RightForeArm  -73.0713 12.5419 -11.6571
RightHand  1.42453 -11.4618 -26.578
LeftUpLeg  -3.0524 6.06699 7.55239
LeftLeg  14.4832 8.39734 7.41376
LeftFoot  -5.45486 0.471632 -7.27205
LeftToes  7.37594e-011 2.64622e-011 -6.25182e-011
414
root  -3.85675 39.5832 -0.844836 -1.72374 -7.20266 -2.32277
RightUpLeg  -3.69155 -2.57557 0.925825
RightLeg  10.6344 -12.0544 -3.1985
RightFoot  -3.1894 -0.320422 3.6837
RightToes  1.74624e-010 -3.18055e-015 -2.98177e-016
Spine  3.1513 -2.23774 4.13103
Spine1  -0.382618 -2.02648 1.08251
HEad  -5.19093 10.9993 0.247605
LeftShoulder1  -3.88251e-019 9.70628e-020 -3.87848e-018
LeftArm  -3.90978 33.8028 -3.8609
LeftForeArm  -77.9974 -1.31889 4.43755
LeftHand  0.390156 7.77994 15.8518
RightShoulder  1.53038 3.93519 9.89119
RightArm  -5.065 -27.7042 1.73513
RightForeArm  -86.1262 10.7045 -11.1137
RightHand  2.14569 -13.0719 -31.7285
LeftUpLeg  -3.13764 7.86726 6.01275
LeftLeg  14.4308 6.27969 6.78239
LeftFoot  -5.59742 0.354526 -5.63228
LeftToes  7.37594e-011 2.64622e-011 -6.25182e-011
415
root  -3.25057 39.588 -0.859387 -2.13555 -6.42597 -1.51945
RightUpLeg  -3.60384 -3.53448 -0.935781
RightLeg  10.8112 -11.6233 -3.46527
RightFoot  -2.64952 -0.411387 4.45314
RightToes  1.74624e-010 -3.18055e-015 -2.98177e-016
Spine  2.72154 -2.07149 4.44365
Spine1  1.05946 -1.61867 -0.294547
HEad  -5.69408 10.9574 0.546667
LeftShoulder1  -3.88251e-019 9.70628e-020 -3.87848e-018
LeftArm  -5.21138 38.6792 -10.6991
LeftForeArm  -89.7565 -1.00612 3.89726
LeftHand  0.986898 10.619 20.5146
RightShoulder  2.24235 5.10086 13.7472
RightArm  -10.3821 -33.5491 3.51956
RightForeArm  -91.6592 12.9496 -12.4547
RightHand  2.22102 -11.8659 -38.078
LeftUpLeg  -3.23477 6.55748 3.99135
LeftLeg  14.8213 6.88529 7.12054
LeftFoot  -6.15907 0.276975 -4.8456
LeftToes  7.37594e-011 2.64622e-011 -6.25182e-011
416
root  -2.60734 39.5621 -0.892905 -2.51393 -5.72322 -0.796836
RightUpLeg  -3.67587 -4.45425 -2.77026
RightLeg  11.2136 -11.0626 -3.86931
RightFoot  -2.10779 -0.527828 5.40566
RightToes  1.74624e-010 -3.18055e-015 -2.98177e-016
Spine  2.38429 -1.74081 4.77612
Spine1  2.65332 -1.09355 -1.19464
HEad  -6.70864 10.6746 0.247429
LeftShoulder1  -3.88251e-019 9.70628e-020 -3.87848e-018
LeftArm  -10.9079 43.7766 -19.0673
LeftForeArm  -94.5176 -1.1965 5.13842
LeftHand  1.01964 9.63527 24.882
RightShoulder  3.30318 6.46648 19.0802
RightArm  -16.8548 -37.1777 4.43498
RightForeArm  -89.4174 15.2363 -12.8703
RightHand  1.76879 -10.405 -39.186
LeftUpLeg  -3.50404 4.04731 1.81837
LeftLeg  15.5736 8.83581 8.01338
LeftFoot  -6.70404 0.222503 -4.30919
LeftToes  7.37594e-011 2.64622e-011 -6.25182e-011
